<?xml version="1.0" encoding="UTF-8" standalone="no"?>
<!DOCTYPE svg PUBLIC "-//W3C//DTD SVG 1.1//EN" "http://www.w3.org/Graphics/SVG/1.1/DTD/svg11.dtd">
<svg width="100%" height="100%" viewBox="0 0 182 181" version="1.1" xmlns="http://www.w3.org/2000/svg" xmlns:xlink="http://www.w3.org/1999/xlink" xml:space="preserve" xmlns:serif="http://www.serif.com/" style="fill-rule:evenodd;clip-rule:evenodd;stroke-linejoin:round;stroke-miterlimit:2;">
    <g transform="matrix(1,0,0,1,-12,-10)">
        <path d="M45.339,108.759C43.873,115.458 48.056,131.008 57,125C63.569,120.587 51.716,107.571 55,92C59.287,71.674 81.721,56.713 93,44C102.917,32.822 102,11 102,11C102,11 125.166,45.635 126,64C126.834,82.383 115.227,82.049 118,100C120.026,113.117 138.686,115.362 140,96C141.554,73.099 131,60 131,60C175.858,95.892 174.179,185.205 101.228,188.945C103.472,188.392 121.531,183.531 124,170C126.634,155.568 109,130 109,130C106.631,140.667 100.542,145.333 101,153C92.171,142.223 92.047,125.979 97,109C97,109 79.449,122.928 76,154C72.568,184.919 97.664,188.635 100.701,188.971C100.468,188.981 100.234,188.991 100,189C55.273,187.545 25.303,144.426 45.339,108.759ZM45.339,108.759C45.645,107.363 46.196,106.352 47,106C46.412,106.914 45.859,107.834 45.339,108.759ZM68.703,170.548C67.495,165.693 67.062,159.935 67.821,153.092C71.709,118.068 91.885,102.554 91.885,102.554C94.692,100.327 98.618,100.172 101.591,102.171C104.565,104.17 105.903,107.864 104.9,111.304C103.473,116.197 102.452,121.023 102.037,125.614C103.226,123.727 105.157,122.366 107.425,121.923C110.637,121.297 113.916,122.634 115.774,125.328C115.774,125.328 125.083,138.864 129.704,152.323C131.895,158.703 132.963,165.1 132.261,170.419C153.652,154.721 157.63,124.07 148.076,98.083C146.87,109.189 141.093,114.948 135.255,117.219C125.034,121.194 111.99,115 109.868,101.256C108.404,91.782 110.098,86.183 112.441,81.305C114.615,76.778 118.188,73.375 117.78,64.373C117.486,57.906 113.828,49.222 109.807,41.04C108.812,39.016 107.784,37.023 106.757,35.101C105.116,40.323 102.702,45.463 99.156,49.461C93.456,55.886 84.949,62.89 77.315,70.844C70.845,77.584 64.888,84.994 63.052,93.698C61.977,98.795 63.153,103.526 64.302,107.57C65.385,111.383 66.516,114.766 66.967,117.552C68.014,124.008 66.285,128.676 61.589,131.831C57.517,134.566 53.789,134.967 50.601,134.331C49.424,134.096 48.288,133.701 47.208,133.151C47.405,147.707 55.67,161.566 68.703,170.548Z" style="fill:rgb(145,26,230);fill-opacity:0.96;"/>
    </g>
</svg>
