<?xml version="1.0" encoding="UTF-8" standalone="no"?><!DOCTYPE svg PUBLIC "-//W3C//DTD SVG 1.1//EN" "http://www.w3.org/Graphics/SVG/1.1/DTD/svg11.dtd"><svg width="100%" height="100%" viewBox="0 0 36 74" version="1.1" xmlns="http://www.w3.org/2000/svg" xmlns:xlink="http://www.w3.org/1999/xlink" xml:space="preserve" xmlns:serif="http://www.serif.com/" style="fill-rule:evenodd;clip-rule:evenodd;stroke-linejoin:round;stroke-miterlimit:2;"><path d="M18,0c0,0 18,38.85 18,55.5c0,9.934 -8.066,18 -18,18c-9.934,0 -18,-8.066 -18,-18c0,-16.65 18,-55.5 18,-55.5Z" style="fill:#d57b03;"/><path d="M18,19.5c0,0 11.25,23.452 11.25,42.75c0,6.209 -5.041,11.25 -11.25,11.25c-6.209,-0 -11.25,-5.041 -11.25,-11.25c0,-19.298 11.25,-42.75 11.25,-42.75Z" style="fill:#f3a900;"/><path d="M18,33c2.766,8.298 7.5,19.253 7.5,30c-0,4.139 -3.361,7.5 -7.5,7.5c-4.139,0 -7.5,-3.361 -7.5,-7.5c-0,-10.747 8.606,-18.936 7.5,-30Z" style="fill:#e76f4f;"/></svg>